<svg xmlns="http://www.w3.org/2000/svg" xmlns:xlink="http://www.w3.org/1999/xlink" width="248" zoomAndPan="magnify" viewBox="0 0 186 30.000001" height="40" preserveAspectRatio="xMidYMid meet" version="1.0"><path fill="#a78b42" d="M 88.710938 0.710938 C 90.945312 -0.0507812 93.472656 0.0273438 95.644531 0.960938 C 98.019531 1.960938 99.921875 3.902344 101.042969 6.183594 C 101.441406 7.050781 101.820312 7.929688 102.070312 8.847656 C 102.109375 8.976562 102.085938 9.09375 102 9.203125 C 101.792969 8.886719 101.6875 8.519531 101.523438 8.183594 C 100.058594 5.304688 97.203125 3.207031 94.023438 2.5625 C 93.644531 2.496094 93.269531 2.429688 92.890625 2.402344 C 91.679688 2.261719 90.449219 2.386719 89.261719 2.652344 C 87.195312 3.167969 85.273438 4.261719 83.839844 5.824219 C 82.949219 6.78125 82.207031 7.890625 81.777344 9.121094 C 81.730469 9.128906 81.644531 9.136719 81.601562 9.140625 C 81.59375 8.792969 81.734375 8.472656 81.839844 8.148438 C 82.277344 6.894531 82.820312 5.664062 83.605469 4.582031 C 84.851562 2.816406 86.640625 1.40625 88.710938 0.710938 M 90.015625 0.96875 C 88.03125 1.355469 86.207031 2.402344 84.804688 3.839844 C 84.328125 4.324219 83.867188 4.835938 83.519531 5.417969 C 85.40625 3.0625 88.382812 1.632812 91.414062 1.523438 C 94.15625 1.410156 96.9375 2.363281 98.988281 4.175781 C 99.421875 4.554688 99.796875 5 100.214844 5.394531 C 99.84375 4.953125 99.511719 4.472656 99.109375 4.058594 C 98.035156 2.925781 96.734375 1.988281 95.265625 1.429688 C 93.609375 0.789062 91.761719 0.621094 90.015625 0.96875 Z M 90.015625 0.96875 " fill-opacity="1" fill-rule="nonzero"/><path fill="#000000" d="M 95.226562 5.066406 C 95.589844 4.855469 96.03125 4.871094 96.4375 4.902344 C 97.101562 4.96875 97.605469 5.597656 97.605469 6.242188 C 97.613281 7.597656 97.605469 8.953125 97.609375 10.308594 C 97.261719 10.308594 96.910156 10.308594 96.5625 10.3125 C 96.550781 9.710938 96.558594 9.113281 96.554688 8.515625 C 96.238281 8.515625 95.925781 8.515625 95.609375 8.515625 C 95.609375 9.113281 95.609375 9.710938 95.609375 10.308594 C 95.25 10.308594 94.894531 10.308594 94.535156 10.308594 C 94.535156 8.984375 94.535156 7.660156 94.535156 6.339844 C 94.53125 5.839844 94.773438 5.316406 95.226562 5.066406 M 95.625 6.257812 C 95.585938 6.675781 95.617188 7.09375 95.605469 7.511719 C 95.921875 7.515625 96.238281 7.515625 96.554688 7.515625 C 96.550781 7.125 96.570312 6.730469 96.546875 6.335938 C 96.550781 6.074219 96.324219 5.820312 96.050781 5.84375 C 95.824219 5.835938 95.644531 6.050781 95.625 6.257812 Z M 95.625 6.257812 " fill-opacity="1" fill-rule="nonzero"/><path fill="#000000" d="M 86.257812 5.003906 C 87.132812 4.996094 88.003906 5.003906 88.878906 5 C 88.875 5.34375 88.875 5.691406 88.878906 6.035156 C 88.296875 6.035156 87.71875 6.035156 87.136719 6.035156 C 87.136719 6.402344 87.136719 6.765625 87.136719 7.128906 C 87.625 7.132812 88.113281 7.132812 88.601562 7.128906 C 88.601562 7.464844 88.601562 7.800781 88.605469 8.132812 C 88.117188 8.136719 87.625 8.132812 87.136719 8.136719 C 87.136719 8.859375 87.136719 9.585938 87.136719 10.308594 C 86.785156 10.308594 86.433594 10.308594 86.085938 10.308594 C 86.089844 8.589844 86.070312 6.871094 86.09375 5.148438 C 86.132812 5.113281 86.214844 5.039062 86.257812 5.003906 Z M 86.257812 5.003906 " fill-opacity="1" fill-rule="nonzero"/><path fill="#000000" d="M 89.441406 5.023438 C 89.742188 4.976562 90.046875 5.003906 90.347656 5 C 90.347656 6.769531 90.347656 8.539062 90.347656 10.308594 C 90.050781 10.308594 89.75 10.316406 89.453125 10.308594 C 89.261719 10.363281 89.269531 10.132812 89.277344 10.015625 C 89.316406 8.484375 89.277344 6.953125 89.296875 5.421875 C 89.308594 5.28125 89.296875 5.101562 89.441406 5.023438 Z M 89.441406 5.023438 " fill-opacity="1" fill-rule="nonzero"/><path fill="#000000" d="M 90.894531 5.421875 C 90.875 5.253906 90.941406 5.019531 91.140625 5.007812 C 91.570312 4.984375 92 5.007812 92.433594 5 C 92.738281 4.992188 93.058594 5.03125 93.328125 5.1875 C 94.214844 5.636719 94.292969 7.074219 93.464844 7.617188 C 94.199219 8.085938 94.25 9.183594 93.726562 9.828125 C 93.441406 10.171875 92.976562 10.3125 92.535156 10.308594 C 91.992188 10.3125 91.445312 10.304688 90.898438 10.308594 C 90.894531 8.679688 90.898438 7.050781 90.894531 5.421875 M 91.929688 5.917969 C 91.929688 6.34375 91.929688 6.769531 91.9375 7.195312 C 92.199219 7.175781 92.484375 7.222656 92.722656 7.09375 C 93.039062 6.890625 93.0625 6.398438 92.855469 6.113281 C 92.636719 5.828125 92.238281 5.941406 91.929688 5.917969 M 91.9375 8.054688 C 91.929688 8.503906 91.929688 8.957031 91.933594 9.410156 C 92.199219 9.390625 92.488281 9.425781 92.734375 9.296875 C 93.117188 9.042969 93.105469 8.34375 92.671875 8.144531 C 92.441406 8.050781 92.183594 8.066406 91.9375 8.054688 Z M 91.9375 8.054688 " fill-opacity="1" fill-rule="nonzero"/><path fill="#000000" d="M 64.742188 13.625 C 65.222656 13.417969 65.757812 13.421875 66.269531 13.457031 C 66.71875 13.484375 67.191406 13.84375 67.152344 14.324219 C 67.152344 14.585938 66.9375 14.765625 66.75 14.921875 C 66.949219 15.078125 67.171875 15.25 67.214844 15.511719 C 67.230469 15.894531 67 16.285156 66.628906 16.421875 C 66.246094 16.554688 65.828125 16.519531 65.429688 16.496094 C 65.074219 16.46875 64.765625 16.164062 64.761719 15.808594 C 64.730469 15.082031 64.773438 14.351562 64.742188 13.625 M 65.59375 14.109375 C 65.589844 14.292969 65.589844 14.476562 65.589844 14.660156 C 65.847656 14.632812 66.261719 14.746094 66.335938 14.402344 C 66.328125 14.027344 65.847656 14.125 65.59375 14.109375 M 65.59375 15.222656 C 65.589844 15.402344 65.589844 15.582031 65.582031 15.761719 C 65.855469 15.824219 66.339844 15.910156 66.386719 15.523438 C 66.355469 15.132812 65.867188 15.253906 65.59375 15.222656 Z M 65.59375 15.222656 " fill-opacity="1" fill-rule="nonzero"/><path fill="#000000" d="M 71.308594 13.511719 C 71.628906 13.410156 72.070312 13.507812 72.230469 13.832031 C 72.679688 14.65625 72.921875 15.574219 73.089844 16.488281 C 72.824219 16.460938 72.496094 16.5625 72.285156 16.359375 C 72.1875 16.191406 72.164062 15.996094 72.113281 15.8125 C 71.769531 15.789062 71.421875 15.785156 71.078125 15.816406 C 71.042969 16.042969 71 16.265625 70.953125 16.492188 C 70.691406 16.480469 70.28125 16.5625 70.226562 16.207031 C 70.222656 15.726562 70.425781 15.273438 70.578125 14.824219 C 70.773438 14.367188 70.957031 13.878906 71.308594 13.511719 M 71.550781 14.359375 C 71.460938 14.617188 71.367188 14.871094 71.285156 15.128906 C 71.503906 15.128906 71.726562 15.128906 71.945312 15.125 C 71.859375 14.863281 71.765625 14.601562 71.667969 14.339844 C 71.640625 14.34375 71.582031 14.355469 71.550781 14.359375 Z M 71.550781 14.359375 " fill-opacity="1" fill-rule="nonzero"/><path fill="#000000" d="M 76.214844 14.777344 C 75.933594 14.171875 76.503906 13.496094 77.117188 13.441406 C 77.5 13.40625 77.945312 13.398438 78.242188 13.675781 C 78.441406 13.859375 78.402344 14.15625 78.445312 14.398438 C 78.027344 14.148438 77.464844 13.953125 77.011719 14.234375 C 76.863281 14.476562 77.152344 14.59375 77.34375 14.636719 C 77.730469 14.734375 78.203125 14.789062 78.417969 15.167969 C 78.59375 15.578125 78.464844 16.125 78.066406 16.363281 C 77.703125 16.574219 77.257812 16.613281 76.851562 16.53125 C 76.609375 16.480469 76.363281 16.347656 76.261719 16.113281 C 76.222656 15.9375 76.226562 15.753906 76.214844 15.574219 C 76.597656 15.8125 77.078125 15.96875 77.527344 15.820312 C 77.707031 15.757812 77.714844 15.46875 77.527344 15.40625 C 77.085938 15.222656 76.460938 15.265625 76.214844 14.777344 Z M 76.214844 14.777344 " fill-opacity="1" fill-rule="nonzero"/><path fill="#000000" d="M 83.402344 13.566406 C 83.710938 13.425781 84.0625 13.492188 84.390625 13.484375 C 84 13.953125 83.578125 14.394531 83.207031 14.882812 C 83.546875 15.320312 83.816406 15.867188 84.363281 16.09375 C 84.304688 16.210938 84.246094 16.332031 84.1875 16.449219 C 84.085938 16.488281 83.984375 16.523438 83.882812 16.5625 C 83.683594 16.496094 83.453125 16.453125 83.308594 16.285156 C 82.984375 15.933594 82.714844 15.535156 82.464844 15.128906 C 82.429688 15.585938 82.445312 16.046875 82.445312 16.503906 C 82.210938 16.476562 81.921875 16.550781 81.734375 16.371094 C 81.566406 16.226562 81.605469 15.992188 81.59375 15.796875 C 81.601562 15.019531 81.59375 14.242188 81.601562 13.46875 C 81.886719 13.488281 82.265625 13.472656 82.394531 13.785156 C 82.492188 14.078125 82.425781 14.398438 82.453125 14.703125 C 82.75 14.3125 83.007812 13.871094 83.402344 13.566406 Z M 83.402344 13.566406 " fill-opacity="1" fill-rule="nonzero"/><path fill="#000000" d="M 105.320312 13.472656 C 105.652344 13.460938 106.058594 13.484375 106.230469 13.824219 C 106.691406 14.640625 106.9375 15.566406 107.097656 16.484375 C 106.875 16.480469 106.648438 16.503906 106.433594 16.460938 C 106.179688 16.335938 106.1875 16.015625 106.105469 15.785156 C 105.769531 15.785156 105.433594 15.789062 105.097656 15.804688 C 105.050781 16.035156 105 16.261719 104.960938 16.492188 C 104.738281 16.464844 104.457031 16.550781 104.296875 16.359375 C 104.179688 16.125 104.277344 15.859375 104.328125 15.617188 C 104.546875 14.863281 104.824219 14.101562 105.320312 13.472656 M 105.601562 14.285156 C 105.484375 14.558594 105.378906 14.839844 105.277344 15.125 C 105.503906 15.128906 105.730469 15.128906 105.957031 15.128906 C 105.863281 14.835938 105.765625 14.546875 105.601562 14.285156 Z M 105.601562 14.285156 " fill-opacity="1" fill-rule="nonzero"/><path fill="#000000" d="M 110.292969 13.472656 C 110.574219 13.492188 111.003906 13.433594 111.09375 13.785156 C 111.167969 14.359375 111.082031 14.9375 111.132812 15.511719 C 111.132812 15.648438 111.222656 15.785156 111.367188 15.808594 C 111.699219 15.886719 112.039062 15.808594 112.371094 15.75 C 112.339844 15.976562 112.433594 16.285156 112.191406 16.421875 C 111.785156 16.625 111.292969 16.574219 110.867188 16.457031 C 110.460938 16.339844 110.296875 15.894531 110.292969 15.511719 C 110.28125 14.832031 110.289062 14.152344 110.292969 13.472656 Z M 110.292969 13.472656 " fill-opacity="1" fill-rule="nonzero"/><path fill="#000000" d="M 115.972656 13.46875 C 116.246094 13.492188 116.667969 13.4375 116.761719 13.78125 C 116.839844 14.355469 116.753906 14.9375 116.800781 15.511719 C 116.804688 15.648438 116.890625 15.785156 117.039062 15.808594 C 117.367188 15.886719 117.707031 15.8125 118.03125 15.746094 C 118.027344 15.933594 118.019531 16.125 118.015625 16.3125 C 117.621094 16.636719 117.0625 16.589844 116.597656 16.476562 C 116.203125 16.386719 115.976562 15.992188 115.972656 15.613281 C 115.960938 14.898438 115.96875 14.183594 115.972656 13.46875 Z M 115.972656 13.46875 " fill-opacity="1" fill-rule="nonzero"/><path fill="#000000" d="M 87.570312 14.046875 C 87.585938 13.773438 87.773438 13.5 88.070312 13.5 C 88.648438 13.453125 89.222656 13.492188 89.800781 13.480469 C 89.796875 13.738281 89.785156 14.074219 89.488281 14.167969 C 89.121094 14.210938 88.753906 14.183594 88.390625 14.183594 C 88.382812 14.347656 88.378906 14.507812 88.371094 14.671875 C 88.753906 14.671875 89.136719 14.671875 89.519531 14.671875 C 89.488281 14.878906 89.570312 15.171875 89.332031 15.277344 C 89.023438 15.363281 88.695312 15.3125 88.378906 15.324219 C 88.382812 15.460938 88.386719 15.601562 88.390625 15.742188 C 88.835938 15.9375 89.335938 15.847656 89.800781 15.777344 C 89.769531 16.011719 89.84375 16.351562 89.5625 16.460938 C 89.195312 16.601562 88.785156 16.566406 88.402344 16.511719 C 87.957031 16.445312 87.578125 16.070312 87.554688 15.621094 C 87.527344 15.097656 87.523438 14.570312 87.570312 14.046875 Z M 87.570312 14.046875 " fill-opacity="1" fill-rule="nonzero"/><path fill="#000000" d="M 93.035156 14.195312 C 93.039062 13.941406 93.042969 13.566406 93.371094 13.515625 C 94.097656 13.429688 94.839844 13.511719 95.574219 13.472656 C 95.589844 13.648438 95.65625 13.847656 95.53125 14 C 95.347656 14.261719 94.996094 14.183594 94.722656 14.203125 C 94.726562 14.964844 94.71875 15.726562 94.730469 16.488281 C 94.441406 16.480469 94.011719 16.5625 93.902344 16.207031 C 93.863281 15.539062 93.902344 14.867188 93.890625 14.195312 C 93.605469 14.195312 93.320312 14.195312 93.035156 14.195312 Z M 93.035156 14.195312 " fill-opacity="1" fill-rule="nonzero"/><path fill="#000000" d="M 98.789062 13.574219 C 99.316406 13.457031 99.871094 13.386719 100.414062 13.476562 C 100.78125 13.550781 101.15625 13.835938 101.152344 14.238281 C 101.203125 14.535156 100.953125 14.738281 100.773438 14.9375 C 100.996094 15.09375 101.246094 15.308594 101.21875 15.613281 C 101.21875 16.09375 100.761719 16.476562 100.292969 16.5 C 99.960938 16.519531 99.621094 16.535156 99.292969 16.464844 C 98.992188 16.398438 98.769531 16.109375 98.78125 15.800781 C 98.773438 15.058594 98.773438 14.316406 98.789062 13.574219 M 99.617188 14.105469 C 99.613281 14.289062 99.609375 14.472656 99.609375 14.660156 C 99.898438 14.667969 100.222656 14.6875 100.40625 14.417969 C 100.273438 14.09375 99.921875 14.089844 99.617188 14.105469 M 99.609375 15.222656 C 99.613281 15.421875 99.617188 15.621094 99.625 15.820312 C 99.875 15.824219 100.128906 15.800781 100.367188 15.726562 C 100.367188 15.589844 100.367188 15.449219 100.367188 15.3125 C 100.117188 15.242188 99.863281 15.222656 99.609375 15.222656 Z M 99.609375 15.222656 " fill-opacity="1" fill-rule="nonzero"/><path fill="#000000" d="M 76.402344 18.945312 C 77.222656 18.777344 78.121094 18.890625 78.835938 19.34375 C 79.484375 19.746094 79.945312 20.410156 80.148438 21.132812 C 80.28125 21.574219 80.265625 22.042969 80.261719 22.5 C 80.253906 23.359375 79.953125 24.242188 79.332031 24.855469 C 78.730469 25.445312 77.867188 25.714844 77.03125 25.6875 C 76.355469 25.722656 75.671875 25.519531 75.128906 25.121094 C 74.476562 24.660156 74.082031 23.910156 73.9375 23.144531 C 73.820312 22.171875 73.867188 21.117188 74.414062 20.265625 C 74.835938 19.558594 75.59375 19.089844 76.402344 18.945312 M 76.675781 20.382812 C 76.058594 20.550781 75.742188 21.183594 75.6875 21.769531 C 75.628906 22.394531 75.652344 23.070312 75.980469 23.625 C 76.382812 24.308594 77.492188 24.453125 78.023438 23.847656 C 78.378906 23.457031 78.484375 22.910156 78.488281 22.398438 C 78.488281 21.890625 78.449219 21.351562 78.175781 20.90625 C 77.867188 20.417969 77.214844 20.25 76.675781 20.382812 Z M 76.675781 20.382812 " fill-opacity="1" fill-rule="nonzero"/><path fill="#000000" d="M 81.226562 19.21875 C 81.8125 19.019531 82.445312 18.960938 83.066406 18.9375 C 83.6875 18.945312 84.335938 18.875 84.929688 19.101562 C 85.546875 19.3125 86.082031 19.828125 86.207031 20.476562 C 86.398438 21.332031 85.960938 22.304688 85.128906 22.652344 C 85.335938 22.792969 85.515625 22.976562 85.621094 23.207031 C 86.007812 23.949219 86.308594 24.730469 86.746094 25.445312 C 86.109375 25.625 85.273438 25.75 84.777344 25.210938 C 84.386719 24.667969 84.265625 23.980469 83.875 23.4375 C 83.679688 23.160156 83.3125 23.15625 83.011719 23.085938 C 83 23.910156 83.011719 24.734375 83.003906 25.558594 C 82.53125 25.546875 81.992188 25.636719 81.582031 25.339844 C 81.261719 25.113281 81.191406 24.699219 81.195312 24.339844 C 81.195312 22.898438 81.199219 21.457031 81.195312 20.011719 C 81.199219 19.746094 81.171875 19.480469 81.226562 19.21875 M 83.007812 21.828125 C 83.332031 21.832031 83.664062 21.871094 83.984375 21.800781 C 84.515625 21.617188 84.621094 20.785156 84.164062 20.472656 C 83.816406 20.28125 83.398438 20.375 83.023438 20.363281 C 82.996094 20.851562 83.007812 21.339844 83.007812 21.828125 Z M 83.007812 21.828125 " fill-opacity="1" fill-rule="nonzero"/><path fill="#000000" d="M 92.410156 19.238281 C 93.191406 18.976562 94.023438 18.910156 94.847656 18.9375 C 95.773438 18.910156 96.734375 19.234375 97.371094 19.921875 C 97.929688 20.472656 98.195312 21.261719 98.222656 22.03125 C 98.253906 22.914062 98.023438 23.832031 97.460938 24.53125 C 97.085938 25.011719 96.542969 25.359375 95.957031 25.523438 C 95.414062 25.671875 94.84375 25.652344 94.289062 25.640625 C 93.773438 25.605469 93.21875 25.5 92.828125 25.140625 C 92.527344 24.867188 92.402344 24.449219 92.410156 24.054688 C 92.410156 22.449219 92.414062 20.84375 92.410156 19.238281 M 94.175781 20.441406 C 94.183594 21.433594 94.179688 22.421875 94.175781 23.414062 C 94.175781 23.636719 94.21875 23.859375 94.261719 24.078125 C 94.898438 24.332031 95.734375 24.140625 96.105469 23.546875 C 96.414062 23.082031 96.449219 22.5 96.398438 21.960938 C 96.347656 21.433594 96.109375 20.882812 95.628906 20.601562 C 95.195312 20.347656 94.660156 20.351562 94.175781 20.441406 Z M 94.175781 20.441406 " fill-opacity="1" fill-rule="nonzero"/><path fill="#000000" d="M 101.714844 20.289062 C 102.515625 19.089844 104.167969 18.59375 105.535156 19.019531 C 106.042969 19.1875 106.488281 19.609375 106.578125 20.148438 C 106.617188 20.476562 106.59375 20.8125 106.597656 21.140625 C 106.082031 20.621094 105.316406 20.417969 104.597656 20.4375 C 103.890625 20.460938 103.1875 20.90625 102.984375 21.589844 C 102.691406 22.480469 103.035156 23.660156 103.976562 24.011719 C 104.851562 24.304688 105.859375 24.078125 106.574219 23.519531 C 106.570312 23.976562 106.652344 24.488281 106.371094 24.890625 C 105.964844 25.480469 105.195312 25.710938 104.5 25.6875 C 103.535156 25.734375 102.566406 25.316406 101.921875 24.605469 C 100.878906 23.4375 100.851562 21.566406 101.714844 20.289062 Z M 101.714844 20.289062 " fill-opacity="1" fill-rule="nonzero"/><path fill="#000000" d="M 114.398438 19.230469 C 115.371094 18.925781 116.402344 18.90625 117.410156 18.949219 C 118.097656 19.003906 118.796875 19.335938 119.160156 19.933594 C 119.515625 20.519531 119.53125 21.261719 119.316406 21.898438 C 119.101562 22.523438 118.574219 23.019531 117.949219 23.242188 C 117.398438 23.457031 116.789062 23.390625 116.214844 23.339844 C 116.222656 24.078125 116.214844 24.816406 116.21875 25.554688 C 115.800781 25.539062 115.351562 25.632812 114.960938 25.449219 C 114.578125 25.261719 114.402344 24.828125 114.40625 24.425781 C 114.398438 22.691406 114.414062 20.960938 114.398438 19.230469 M 116.238281 20.367188 C 116.203125 20.867188 116.222656 21.371094 116.21875 21.871094 C 116.675781 21.921875 117.328125 22.070312 117.59375 21.574219 C 117.6875 21.21875 117.714844 20.730469 117.386719 20.480469 C 117.039062 20.277344 116.617188 20.375 116.238281 20.367188 Z M 116.238281 20.367188 " fill-opacity="1" fill-rule="nonzero"/><path fill="#000000" d="M 64.140625 19.035156 C 64.570312 19.035156 65.003906 19.007812 65.433594 19.046875 C 65.84375 19.097656 66.160156 19.457031 66.222656 19.847656 C 66.410156 20.851562 66.644531 21.863281 67.074219 22.796875 C 67.507812 21.644531 67.882812 20.464844 68.109375 19.253906 C 68.5625 19.261719 69.058594 19.179688 69.464844 19.429688 C 69.804688 19.636719 69.953125 20.023438 70.023438 20.390625 C 70.195312 21.222656 70.476562 22.03125 70.816406 22.8125 C 71.304688 21.597656 71.636719 20.324219 71.820312 19.03125 C 72.316406 19.085938 72.945312 18.859375 73.324219 19.277344 C 73.640625 19.597656 73.53125 20.074219 73.421875 20.457031 C 72.933594 22.265625 72.253906 24.035156 71.28125 25.648438 C 70.847656 25.671875 70.335938 25.644531 70.066406 25.25 C 69.496094 24.382812 69.207031 23.375 68.890625 22.398438 C 68.597656 23.542969 68.148438 24.664062 67.5 25.65625 C 67.046875 25.667969 66.5 25.621094 66.246094 25.191406 C 65.480469 23.925781 64.921875 22.539062 64.5625 21.105469 C 64.390625 20.421875 64.273438 19.726562 64.140625 19.035156 Z M 64.140625 19.035156 " fill-opacity="1" fill-rule="nonzero"/><path fill="#000000" d="M 87.308594 19.035156 C 87.761719 19.058594 88.261719 18.9375 88.679688 19.164062 C 89.042969 19.375 89.113281 19.824219 89.121094 20.203125 C 89.128906 21.214844 89.117188 22.222656 89.125 23.230469 C 89.125 23.507812 89.183594 23.832031 89.441406 23.992188 C 89.730469 24.152344 90.074219 24.113281 90.390625 24.121094 C 90.878906 24.128906 91.367188 24.054688 91.839844 23.921875 C 91.820312 24.367188 91.921875 24.890625 91.59375 25.253906 C 91.238281 25.613281 90.683594 25.628906 90.207031 25.648438 C 89.457031 25.648438 88.609375 25.644531 88.003906 25.136719 C 87.453125 24.671875 87.328125 23.910156 87.308594 23.230469 C 87.308594 21.832031 87.3125 20.433594 87.308594 19.035156 Z M 87.308594 19.035156 " fill-opacity="1" fill-rule="nonzero"/><path fill="#000000" d="M 107.441406 19.03125 C 107.828125 19.046875 108.230469 18.984375 108.609375 19.085938 C 108.988281 19.222656 109.21875 19.628906 109.214844 20.019531 C 109.234375 20.90625 109.203125 21.792969 109.226562 22.679688 C 109.265625 23.085938 109.246094 23.535156 109.515625 23.871094 C 109.808594 24.238281 110.34375 24.257812 110.773438 24.179688 C 111.3125 24.046875 111.472656 23.433594 111.492188 22.953125 C 111.5 21.644531 111.492188 20.339844 111.496094 19.03125 C 111.890625 19.042969 112.300781 18.984375 112.6875 19.089844 C 113.078125 19.21875 113.265625 19.640625 113.269531 20.023438 C 113.285156 20.941406 113.269531 21.855469 113.277344 22.773438 C 113.285156 23.515625 113.0625 24.292969 112.539062 24.84375 C 111.964844 25.464844 111.085938 25.726562 110.253906 25.6875 C 109.457031 25.71875 108.644531 25.398438 108.121094 24.792969 C 107.628906 24.242188 107.445312 23.488281 107.441406 22.769531 C 107.441406 21.523438 107.441406 20.277344 107.441406 19.03125 Z M 107.441406 19.03125 " fill-opacity="1" fill-rule="nonzero"/></svg>